<svg xmlns="http://www.w3.org/2000/svg" viewBox="0 0 435 435"><path d="M350.5 0h-266C77.597 0 72 5.597 72 12.5v48c0 76.018 58.602 138.596 133 144.957v13.017c-15.11 5.203-26 19.552-26 36.406s10.89 31.203 26 36.406v65.531a95.884 95.884 0 0 0-42.853 16.602c-15.893 11.125-27.96 26.547-34.897 44.598a12.499 12.499 0 0 0 11.668 16.984h157.165a12.5 12.5 0 0 0 11.668-16.984c-6.937-18.051-19.004-33.473-34.897-44.598a95.872 95.872 0 0 0-42.853-16.602v-65.531c15.11-5.203 26-19.552 26-36.406s-10.89-31.203-26-36.406v-13.017c74.398-6.361 133-68.94 133-144.957v-48C363 5.597 357.403 0 350.5 0zM338 25v17.5H97V25h241zm-62.965 385h-115.07c13.339-17.857 34.665-29 57.535-29s44.196 11.143 57.535 29zM217.5 268.38c-7.444 0-13.5-6.056-13.5-13.5s6.056-13.5 13.5-13.5 13.5 6.056 13.5 13.5-6.056 13.5-13.5 13.5zm0-87.38c-64.094 0-116.653-50.302-120.292-113.5h240.583C334.153 130.698 281.594 181 217.5 181z"/><path d="M130.503 83.999c-3.29 0-6.52 1.34-8.84 3.66-2.33 2.33-3.66 5.55-3.66 8.84s1.33 6.51 3.66 8.84 5.55 3.66 8.84 3.66 6.51-1.33 8.84-3.66c2.32-2.33 3.66-5.55 3.66-8.84s-1.34-6.51-3.66-8.84a12.624 12.624 0 0 0-8.84-3.66zM188.503 83.999c-3.29 0-6.52 1.34-8.84 3.66-2.33 2.33-3.66 5.55-3.66 8.84s1.33 6.51 3.66 8.84 5.55 3.66 8.84 3.66 6.51-1.33 8.84-3.66c2.32-2.33 3.66-5.55 3.66-8.84s-1.34-6.51-3.66-8.84a12.624 12.624 0 0 0-8.84-3.66zM313.343 87.659c-2.33-2.33-5.55-3.66-8.84-3.66s-6.51 1.33-8.84 3.66-3.66 5.55-3.66 8.84 1.33 6.51 3.66 8.84c2.32 2.33 5.55 3.66 8.84 3.66s6.51-1.33 8.84-3.66c2.32-2.33 3.66-5.55 3.66-8.84s-1.34-6.51-3.66-8.84zM246.503 83.999c-3.29 0-6.52 1.34-8.84 3.66-2.33 2.33-3.66 5.55-3.66 8.84s1.33 6.51 3.66 8.84 5.55 3.66 8.84 3.66 6.51-1.33 8.84-3.66c2.32-2.33 3.66-5.55 3.66-8.84s-1.34-6.51-3.66-8.84a12.624 12.624 0 0 0-8.84-3.66z"/></svg>